<?xml version="1.0" encoding="UTF-8"?>
<svg id="Layer_5" xmlns="http://www.w3.org/2000/svg" viewBox="0 0 2500 2000">
  <defs>
    <style>
      .cls-1, .cls-2 {
        fill: #525f3c;
      }

      .cls-3 {
        opacity: .4;
      }

      .cls-4 {
        fill: #576640;
      }

      .cls-5 {
        fill: #5a6b42;
      }

      .cls-6 {
        fill: #a1d5b2;
      }

      .cls-7 {
        fill: #658147;
      }

      .cls-8 {
        fill: #ab886d;
      }

      .cls-9 {
        fill: #56633f;
      }

      .cls-10 {
        fill: #729762;
      }

      .cls-11 {
        fill: #5c7046;
      }

      .cls-12 {
        fill: #9e7d67;
      }

      .cls-13 {
        fill: #fff;
        opacity: .06;
      }

      .cls-14 {
        fill: #a5826a;
      }

      .cls-2 {
        opacity: .5;
      }

      .cls-15 {
        fill: #af8b72;
      }
    </style>
  </defs>
  <rect class="cls-6" width="2500" height="2000"/>
  <g>
    <path class="cls-3" d="M496.05,406.14c-.24,0-.49.02-.73.06-.06,0-.11.02-.17.03-.23.05-.47.11-.7.2-.04.02-.09.04-.13.06-.2.08-.4.18-.59.29-.06.03-.12.07-.18.1-.22.13-.44.29-.65.45-.07.06-.14.12-.22.18-.17.14-.33.29-.5.45-.07.07-.14.13-.21.2-.2.2-.4.43-.6.66-.1.11-.19.23-.28.35-.14.17-.28.36-.42.55-.14.19-.28.39-.43.6-.12.18-.24.36-.37.55-.11.17-.22.35-.33.53-.12.2-.25.42-.37.63-.17.29-.33.58-.5.89-.09.17-.18.34-.28.52-.12.23-.24.46-.36.71,0,0,0,0,0,0,0,0,0,0,0,0-13.57,27.42-24.58,119.14-39.59,176.72-7.43,28.55-15.84,48.7-26.03,48.47-7.24-.17-14.01-10.59-19.73-23.94h0c-.28-.66-.56-1.33-.84-2-.06-.14-.11-.28-.17-.42-.22-.53-.43-1.05-.64-1.59-.07-.19-.15-.37-.22-.56-.2-.52-.4-1.03-.6-1.55-.06-.17-.13-.33-.19-.5-.52-1.38-1.04-2.77-1.54-4.18-.05-.14-.1-.29-.15-.43-.2-.56-.39-1.11-.59-1.67-.07-.2-.14-.39-.2-.59-.18-.53-.37-1.07-.55-1.6-.06-.17-.12-.35-.18-.52-.47-1.41-.94-2.83-1.38-4.24-.05-.16-.1-.31-.15-.47-.17-.55-.35-1.1-.52-1.64-.06-.19-.12-.39-.18-.58-.17-.53-.33-1.07-.49-1.6-.05-.17-.1-.33-.15-.5-.42-1.39-.83-2.77-1.22-4.13-.04-.15-.09-.3-.13-.45-.15-.52-.3-1.04-.45-1.56-.05-.19-.11-.38-.16-.57-.14-.51-.28-1.01-.42-1.51-.04-.15-.09-.31-.13-.46-.36-1.31-.71-2.59-1.04-3.84-.04-.13-.07-.27-.11-.4-.13-.48-.25-.95-.37-1.42-.05-.18-.09-.35-.14-.52-.12-.45-.23-.9-.35-1.35-.04-.14-.07-.28-.11-.41-.3-1.15-.58-2.27-.84-3.33-.03-.14-.07-.27-.1-.4-.1-.4-.19-.79-.29-1.17-.03-.14-.07-.28-.1-.42-.09-.38-.18-.75-.27-1.12-.03-.12-.06-.25-.09-.37-.23-.94-.43-1.82-.63-2.65-.03-.11-.05-.21-.07-.32-.07-.3-.14-.59-.2-.87-.03-.12-.05-.23-.08-.35-.06-.27-.12-.53-.18-.78-.02-.09-.04-.18-.06-.27-.15-.66-.28-1.26-.4-1.78-.02-.08-.03-.16-.05-.24-.04-.18-.08-.35-.11-.51-.01-.07-.03-.13-.04-.19-.03-.16-.07-.3-.1-.44-.01-.05-.02-.11-.03-.15-.03-.15-.06-.3-.09-.42-8.31-38.3-2.75-53.07-12.27-100.64-6.23-31.1-13.52-67.51-27-68.73-.34-.03-.68-.03-1.02-.02-.07,0-.14,0-.21,0-.33.02-.66.06-1,.13-.06.01-.12.03-.18.04-.32.07-.63.15-.95.25-.04.01-.08.02-.12.04-.34.11-.68.25-1.02.4-.07.03-.15.07-.22.1-.34.16-.68.33-1.02.53-.04.02-.08.05-.12.07-.32.19-.64.39-.96.61-.06.04-.12.08-.18.12-.34.24-.68.49-1.01.76-.07.06-.14.11-.21.17-.35.28-.7.58-1.04.9h0s0,0,0,0c-12.18,11.16-24.15,42.54-30.02,64.62-11.87,44.73-.91,59.67-12.27,105.54-1.64,6.63-17.06,68.89-34.36,68.73-6.96-.06-12.68-10.22-17.6-26.01h0c-.27-.86-.53-1.73-.79-2.63,0-.03-.02-.05-.02-.08-.26-.89-.52-1.79-.78-2.71,0-.03-.02-.06-.02-.09-.51-1.84-1.02-3.75-1.52-5.71-.01-.04-.02-.09-.03-.13-.5-1.96-.98-3.97-1.46-6.03,0-.04-.02-.08-.03-.12-.49-2.09-.96-4.22-1.43-6.4,0,0,0-.01,0-.02-5.8-26.94-10.49-60.58-15.13-89.96-.04-.28-.09-.57-.13-.85-.1-.63-.2-1.25-.3-1.87-.1-.62-.2-1.23-.29-1.84-.11-.67-.22-1.34-.32-2-.09-.53-.17-1.05-.26-1.58-.07-.46-.15-.92-.22-1.37-.14-.84-.28-1.68-.42-2.51-.07-.42-.14-.84-.21-1.26-.11-.63-.21-1.26-.32-1.89-.06-.34-.11-.67-.17-1.01-.15-.87-.3-1.73-.44-2.58-.06-.36-.12-.71-.19-1.07-.13-.74-.26-1.48-.39-2.22-.06-.32-.11-.65-.17-.97-.13-.74-.26-1.47-.4-2.19-.06-.31-.11-.62-.17-.93-.16-.85-.31-1.69-.47-2.53-.04-.23-.09-.45-.13-.68-.13-.68-.26-1.36-.39-2.02-.05-.27-.11-.54-.16-.81-.16-.81-.32-1.62-.48-2.41-.05-.22-.09-.45-.14-.67-.14-.68-.28-1.34-.42-2.01-.04-.2-.08-.39-.12-.59-.17-.78-.33-1.55-.5-2.31-.05-.22-.1-.43-.14-.64-.15-.68-.3-1.36-.46-2.02-.03-.12-.05-.23-.08-.35-.17-.74-.34-1.46-.52-2.18-.05-.2-.1-.4-.14-.59-.18-.71-.35-1.42-.53-2.11-.02-.07-.04-.14-.06-.22-.17-.64-.33-1.26-.5-1.87-.05-.17-.09-.34-.14-.5-.18-.65-.36-1.28-.54-1.9-.03-.12-.07-.23-.1-.34-.16-.54-.32-1.07-.48-1.59-.04-.13-.08-.27-.12-.4-.18-.58-.37-1.14-.55-1.69-.04-.13-.09-.25-.13-.37-.16-.48-.33-.95-.5-1.4-.03-.09-.07-.18-.1-.27-.19-.51-.38-1-.57-1.47-.05-.11-.09-.23-.14-.34-.19-.45-.37-.89-.56-1.31-.01-.03-.02-.06-.04-.08-.2-.44-.4-.85-.6-1.24-.05-.09-.1-.19-.14-.28-.2-.39-.4-.76-.6-1.11-.02-.04-.04-.07-.06-.1-.19-.32-.38-.62-.57-.9-.05-.07-.09-.14-.14-.21-.2-.3-.41-.57-.62-.83-.04-.05-.07-.09-.11-.13-.19-.22-.37-.43-.56-.61-.04-.04-.08-.09-.12-.12-.21-.2-.42-.38-.64-.54-.05-.03-.09-.07-.14-.1-.2-.14-.39-.26-.59-.36-.03-.01-.06-.03-.08-.05-.22-.1-.44-.18-.66-.24-.05-.01-.1-.02-.16-.04-.23-.05-.46-.08-.69-.08-.25,0-.51.04-.78.1-.08.02-.16.04-.24.06-.2.06-.4.13-.61.22-.08.03-.16.06-.24.1-.27.13-.53.28-.81.46-.09.06-.19.14-.28.2-.19.14-.38.28-.57.44-.13.11-.26.22-.39.33-.17.15-.33.31-.5.48-.23.23-.47.47-.7.73-.16.17-.31.34-.47.53-.19.22-.37.45-.56.69-.1.13-.21.26-.31.4-.21.27-.41.54-.62.83-.03.04-.06.08-.08.12-.49.69-.99,1.45-1.49,2.26,0,.01-.01.02-.02.04-.26.42-.52.85-.78,1.29-.02.03-.04.07-.06.1-18.16,31.34-41.05,136-2.78,233.31.92,3.37,2.27,6.72,4.22,10.15,3.42,7.76,7.25,15.46,11.52,23.05,16.59,29.46,37.04,52.3,56.79,69.75.1.08.19.17.29.25,1.03.91,2.07,1.81,3.1,2.69.14.12.28.24.42.36,1.01.86,2.01,1.7,3.01,2.53.13.11.26.22.4.33,1.1.91,2.2,1.81,3.29,2.69,0,0,0,0,0,0h0c9.17,7.37,18.01,13.59,26.02,18.77,0,0,4.06,54.78-2.03,111.58-6.08,56.8-28.4,142-12.17,208.94,16.23,66.95,10.15,135.92-10.14,241.41-10.81,56.21-12.4,93.98-.79,116.09h0s0,.01.01.02c1.21,2.29,2.56,4.41,4.05,6.37.09.12.18.25.27.37.29.37.58.72.88,1.08.13.16.26.32.39.47.28.33.58.65.87.97.15.17.31.34.47.5.29.3.58.6.88.89.17.17.35.34.52.51.3.28.6.56.9.83.19.17.38.34.57.5.3.26.61.52.93.77.2.16.41.32.61.48.32.24.63.49.96.72.21.16.43.31.65.46.33.23.66.45.99.67.23.15.45.29.68.44.34.21.68.43,1.03.63.23.14.47.27.71.41.35.2.71.4,1.07.59.24.13.49.25.74.38.37.19.74.38,1.11.55.24.12.5.22.74.34.39.18.78.36,1.18.52.23.1.47.19.7.28,1.47.59,3,1.13,4.59,1.61.27.08.54.17.82.25.39.11.8.21,1.2.32.34.09.68.18,1.02.27.39.1.79.18,1.19.27.37.08.73.17,1.1.25.4.08.8.16,1.21.23.39.07.78.15,1.17.22.4.07.81.13,1.22.2s.82.13,1.23.19c.41.06.82.11,1.24.16.43.05.86.11,1.29.15.42.05.84.09,1.26.13.45.04.9.08,1.35.12.42.03.85.07,1.28.1.47.03.94.06,1.41.09.43.02.86.05,1.29.06.49.02.98.04,1.48.05.43.01.87.02,1.31.03.51,0,1.03.01,1.56.01.43,0,.86,0,1.3,0,.55,0,1.1-.01,1.66-.02.43,0,.85-.01,1.28-.02.59-.02,1.19-.04,1.79-.06.41-.02.81-.03,1.23-.05.67-.03,1.36-.07,2.05-.12.35-.02.7-.04,1.05-.06,1.05-.07,2.11-.15,3.18-.24,71-6.09,60.86-46.66,52.74-95.35-8.11-48.69,14.2-111.57,4.06-164.32-10.14-52.74-22.32-119.69-2.03-237.35,20.29-117.66-2.03-204.89-2.03-204.89,31.82-21.99,76.12-59.92,105.49-119.69,61.43-125.02,20.49-270.23,1.01-270.78Z"/>
    <path class="cls-3" d="M2348.45,678.07c19.67-55.24,8.89-117.24-16.36-168.9-162.1-302.49-431.97,155.57-169.73,270.24,0,0-22.31,87.23-2.03,204.89,20.29,117.66,8.11,184.6-2.03,237.35-10.14,52.74,12.17,115.63,4.06,164.32-3.55,21.3-7.49,41.05-4.85,57.04h0c3.26,27.78,33.56,36.84,57.58,38.3,77.91,5.81,80.61-43.97,62.9-139.97-20.86-111.85-27.35-170.86-7.54-254.16,11.61-72.36-11.91-150.22-16.22-211.86-2.64-37.94-2.39-63.73-.59-95.9,23.99-11.96,75.59-45.86,94.8-101.34Z"/>
    <path class="cls-3" d="M2004.52,1275.12h-.01c-104.23,190.55-279.37,365.07-424.37,448.55-175.05,92.81-402.68,75.91-584.19-29.48-85.09-41.62-198.53-98.7-289.64-220.9-95.43-151.23-171.99-302.71-167.64-494.04,15.25-270.26,251.03-538.99,433.38-661.29,220.24-120.08,526.65-46.34,686.62,38.52,113.26,55.15,219.3,102.73,287.18,213.54,51.86,82.96,70.41,193.93,93.28,299.46,41.46,166.05,33.19,267.47-34.61,405.64Z"/>
    <path class="cls-10" d="M1948.88,1234.03h-.01c-.07.16-.15.32-.23.47l-.08.15-.14.27-.04.08-.06.12c-3.09,6.12-6.27,12.19-9.54,18.21l-.07.13c-71.61,131.9-181.9,238.5-254.68,308.84-74.1,71.62-122.04,101.25-159.54,120.27-24.73,12.54-101.11,48.94-207.98,59.08-2.21.21-4.44.41-6.67.6h-.01c-1.18.1-2.36.19-3.55.28-.79.07-1.59.13-2.38.18-.65.05-1.3.09-1.95.13-1.87.14-3.74.26-5.63.37-.08.01-.16.02-.24.02-2.24.14-4.49.26-6.75.37h-.09c-1.88.09-3.78.18-5.68.25-.78.03-1.56.06-2.35.09-.76.02-1.52.05-2.29.08-1.22.03-2.45.07-3.68.09-.93.03-1.86.05-2.8.07-.13.01-.25.01-.38,0-1.31.03-2.62.06-3.93.07-.77.01-1.54.02-2.32.03-1.62.01-3.25.02-4.89.02-5.01,0-10.06-.06-15.16-.19-126-3.2-213.63-46.07-305.45-91-85.09-41.63-198.53-98.71-289.64-220.91-40.19-53.9-61.36-100.78-83.46-149.72-39.49-87.48-81.88-181.38-84.81-301.73-.08-3.43-.13-6.83-.15-10.23-.06-10.95.21-21.74.79-32.36v-.09c8.63-159.25,85.06-279.84,123.45-340.41,10.39-16.39,21.01-31.8,31.67-46.31,2.47-3.36,4.94-6.67,7.41-9.93,32.06-42.37,64.1-76.82,91.01-105.76,63.24-68.01,105.32-113.25,164.45-149.73.8-.5,1.61-.99,2.41-1.47l.12-.07c4.21-2.56,8.42-5.03,12.64-7.39l.21-.13h.01c112.09-63.01,227.75-63.17,310.97-60.19,6.31.23,12.44.47,18.37.71,5.18.21,10.31.46,15.4.77,156.82,9.27,270.48,62.75,341.87,97.23,42.23,20.39,81.17,39.19,116.74,59.24,5.21,2.93,10.34,5.89,15.4,8.89,62.93,37.24,114.72,80.01,155.04,145.41,30.06,48.76,47.82,100.48,64.85,170.15l.35,1.44c1.19,4.87,2.37,9.83,3.55,14.88,7.78,33.18,15.59,70.37,24.53,112.99,16.18,77.08,24.27,115.63,25.63,152.36,3.39,91.19-21.47,176.31-60.24,253.28Z"/>
    <path class="cls-11" d="M1573.36,1415.23c-55.39,53.54-91.22,75.69-119.25,89.9-22.35,11.33-101.1,48.73-208.33,46-94.18-2.39-159.68-34.44-228.31-68.01-63.6-31.12-148.38-73.79-216.49-165.12-30.04-40.29-45.86-75.33-62.37-111.91-29.52-65.39-61.21-135.57-63.4-225.53-3.28-134.81,61.55-237.1,92.75-286.33,32.9-51.9,68.88-90.59,97.24-121.09,47.27-50.83,78.72-84.65,122.92-111.91,93.63-57.76,192.18-53.84,257.66-51.23,123.18,4.9,211.94,46.64,267.04,73.24,93.6,45.2,165.52,79.92,214.65,159.62,34.47,55.91,47.3,117.05,69.72,223.82,12.09,57.62,18.14,86.43,19.16,113.88,7.17,192.9-154.78,349.42-242.99,434.67Z"/>
    <g>
      <path class="cls-5" d="M976.3,491.2c6.1-5.58,80.42-65.19,110.25-24.47,32.55,37.78,55.2,70.32,99.14,63.52,16.71-1.8,27.91,7.73,30.16,22.7,1.45,9.63-.8,21.5-7.66,34.04-4.37,8.23-12,17.75-19.39,24.86-3.74,3.65-8.05,7.23-12.36,10.65-57.52,44.15-6.27,130.54-34.7,157.32-15.59,24.27,17.68,85.67-22.66,76.2-88.37-24.59-97.41-135.96-174.26-136.27-36.62-4.24-179.8-7.2-111.56-68.84,15.36-13.4,30.69-25.03,45.41-33.62,25.6-15.17,32-7.96,34.68-29.02,2.56-48.86,54.27-90.59,62.95-97.07h.01Z"/>
      <path class="cls-5" d="M784.38,768.26c8.52,8.55,52.28,40.01,97.84,32.85,36.3-2.65-5.28,44.09,57.57,77.98,14.1,8.05,38.3,16.99,64.21,22.89,170.25,40.13,303.57,147.67,218.96,281.96-4.3,8.19-9.29,17.23-13.92,24.86-40.46,67.89-82.79,85.83-126.99.36-37.63-66.55-38.63-16.43-80.57-32.26-12-5.18-21.73-12.93-31.83-22.31-12.44-12.01-23.49-24.03-35.04-34.44-37.73-34.58-39.38-20.59-75.69-27.26-25.73-4.5-53-18.23-78.36-25.11-41.54-12.23-72.86-15.41-86.07-26.96-11.93-10.04-6.16-27.39.87-41.65,6.55-12.88,12.32-24.34,16.59-36.83,9.4-27.67-.1-32.49-2.87-51.37-1.03-7.02-.73-14.2-.71-21.47.28-25.47,2.33-35.69,19.34-46.01,2.44-1.51,5.32-3.19,7.45-5.06,2.03-1.76,3.38-3.59,4.27-5.5,4.38-9.72-3.12-24.12,5.68-38.54,7.34-13.69,25.66-26.66,39.25-26.13h.02Z"/>
      <path class="cls-5" d="M1306.87,438.03c-20.05,8.46,33.19,6.27,36.54,6.51,38.46-.27,56.18,4.27,69.35,31.93,1.52,3.11,2.61,5.65,4.03,7.7,3,5.33,12.21,6.83,19.05,7.31,11.61.86,25.42.44,37.31,2.23,26.03,3.17,57.59,14.57,18.68,32.77-10.87,5-22.67,9.22-33.82,12.69-8.39,2.6-15.78,4.6-22.19,6.56-8.13,2.59-15.05,4.78-21.22,9.67-4.78,3.74-7.72,9.31-9.31,15.21-7.2,27.66-15.31,69.71-58.1,61.99-3.89-.43-7.43-.71-11.01-.9-4.63-.2-9.44-.32-14.52-.14-9.64.31-17.69,1.46-24.32,2.85-11.54,2.35-17.06,5.16-22.87,6.34-1.39.06,2.9-2.33,8.56-8.06,9.2-8.7,17.8-25.22,19.37-39.49.62-4.14.85-8.83.88-13.27,0-40.29,11.95-56.49-11.47-84.96-5.91-7.38-11.69-14.12-18.89-19.32-5.27-3.69-6.41-2.45-7.62-8.03-1.22-6.9-2.64-15.31-3.33-22.5-1.88-29.61,38.09-11.21,44.92-7.09h0Z"/>
      <path class="cls-5" d="M1322.53,1012.52c-41.13-50.56-122.2-168.26-60.53-232.77,4.82-5.3,8.75-10.1,12.14-14.73,4.69-6.39,9.89-15.11,12.55-21.81,13.3-36.02-7.17-39.94,35.34-42.69,15-.86,31.02-.27,47.4-.83,19.71-.82,37.55-5.72,51.54-12.66,68.09-35.03,75.37-110.23,150.04-84.58,6.61,1.45,12.95,2.44,18.99,3.1,10.84,1.19,20.75,1.32,29.66,1.21,25.61.4,48.32-5.86,54.64,21.5,1.57,6.15,1.97,16.32,1.67,25.9-.22,7.27-.76,13.46-1.51,21.02-13.71,83.08,104.83,125.21,87.51,144.12-3.05,3.5-10.01,6.59-22.19,9.46-2.92.69-6.22,1.37-9.06,1.93-20.09,3.78-35.22,6.27-52.82,8.89-56.08,7.89-63.93,7.77-91.29,37.99-26.83,25.66-60.08-1.48-98.83,3.07-13.03,1.36-27.72,7.55-37.98,16.62-33.19,29.21-19.3,78.67-56.94,74.33-3.59-.3-6.81-.58-9.77-.59-2.92-.02-5.88.18-8.84.63-4.38.57-8.94,2.08-11.99,3.83-14.59,8.35-12.1,22.95-22.9,31.61-4.26,3.61-11.57,5.89-16.78,5.45h-.03Z"/>
      <path class="cls-5" d="M1348.99,1118.03s14.73-94.5,144.82-72.41c130.09,22.09,44.18-39.27,139.91-69.95,95.73-30.68,186.55-62.59,126.41,7.36-60.14,69.95,41.73,92.05-34.36,149.73-76.09,57.68-36.82,93.27-94.5,84.68s-20.86-17.18-110.45,20.86-34.36,50.32-112.91,40.5-159.55,28.23-106.77-41.73c52.77-69.95,31.91-92.05,38.05-104.32,6.14-12.27,9.82-14.73,9.82-14.73Z"/>
      <path class="cls-5" d="M1307.67,1523.03c-3.27-4.91-49.09-152.18,36-152.18s54-26.18,147.27-26.18c73.6,0,138.28-68.22,149.14-55.9,1.97,2.23,1.82,6.72-8.41,26.45-14.81,28.57-57.06,110.04-107.87,112.82-1.87.1-12.9,3.64-26.31.09-55.64-14.73-37.64,9.82-70.36,36-32.73,26.18-27.82,62.18-62.18,47.45-34.36-14.73-24.55,4.91-36,13.09-1.24.88-4.19,2.9-8.4,3.22-6.72.5-11.64-3.73-12.87-4.85Z"/>
      <path class="cls-5" d="M774.22,1200.66s37.64-29.45,98.18,49.09c60.55,78.55,94.91,24.55,191.45,72s140.73,55.64,106.36,103.09c-34.36,47.45,36,114.55-31.09,80.18s-98.18-96.55-188.18-124.36c-90-27.82-116.18-36-142.36-78.55-26.18-42.55-34.36-101.45-34.36-101.45Z"/>
    </g>
    <path class="cls-7" d="M1854.32,980.6c-1.09-29.28-7.54-60.01-20.44-121.46-23.9-113.88-37.59-179.09-74.35-238.72-52.41-85-129.11-122.03-228.94-170.24-58.77-28.37-153.44-72.9-284.81-78.12-69.84-2.78-174.95-6.96-274.82,54.64-47.14,29.08-80.68,65.15-131.1,119.36-30.24,32.52-68.62,73.79-103.71,129.15-33.28,52.51-102.42,161.6-98.92,305.39,2.34,95.95,36.13,170.8,67.62,240.53,17.61,39.02,34.49,76.39,66.53,119.36,72.63,97.42,163.06,142.92,230.89,176.11,73.2,35.81,143.06,69.99,243.51,72.54,114.37,2.91,198.36-36.97,222.19-49.06,29.9-15.16,68.12-38.78,127.19-95.88,94.08-90.93,266.81-257.87,259.16-463.6ZM1573.36,1415.23c-55.39,53.54-91.22,75.69-119.25,89.9-22.35,11.33-101.1,48.73-208.33,46-94.18-2.39-159.68-34.44-228.31-68.01-63.6-31.12-148.38-73.79-216.49-165.12-30.04-40.29-45.86-75.33-62.37-111.91-29.52-65.39-61.21-135.57-63.4-225.53-3.28-134.81,61.55-237.1,92.75-286.33,32.9-51.9,68.88-90.59,97.24-121.09,47.27-50.83,78.72-84.65,122.92-111.91,93.63-57.76,192.18-53.84,257.66-51.23,123.18,4.9,211.94,46.64,267.04,73.24,93.6,45.2,165.52,79.92,214.65,159.62,34.47,55.91,47.3,117.05,69.72,223.82,12.09,57.62,18.14,86.43,19.16,113.88,7.17,192.9-154.78,349.42-242.99,434.67Z"/>
    <path class="cls-2" d="M1948.87,1234.03h.01l-.24.47-.08.15-.14.27-.04.08-.06.12-9.54,18.21-.07.13c-10.12,2.29-21.65,6.1-36.22,14.29-39.28,22.09-44.18,34.36-88.37,17.18-39.28-15.27-47.52-18.9-64.38-10.89-2.11.99-4.35,2.17-6.8,3.53-22.09,12.27-34.36,2.45-41.73-7.37-7.36-9.81,14.73-19.63-81,0-95.72,19.64-17.18,7.37-108,41.73-90.81,34.37-95.72-14.73-171.81,22.09-52.7,25.5-70.07,88.65-75.78,125.09,7.56,15.72,13.55,30.29,11.96,56.55-1.98,32.56-10.89,44.06-12.13,73.57-.17,4.04-.2,8.42-.04,13.24.56,17.6,5.51,38.2,19.53,65.37,19.71,38.19,28.29,58.45,32.57,73.81-2.21.21-4.44.41-6.67.6h-.01c-1.18.09-2.36.19-3.55.27-.79.07-1.59.13-2.38.19-.65.05-1.3.09-1.95.13-1.87.14-3.74.26-5.63.37-.08.01-.16.02-.24.02-2.24.14-4.49.26-6.75.37h-.09c-1.88.09-3.78.18-5.68.25-.78.03-1.56.06-2.35.09-.76.02-1.52.05-2.29.08-1.22.03-2.45.07-3.68.09-.93.03-1.86.05-2.8.06-.12.01-.25.01-.38.01-1.31.03-2.62.06-3.93.07-.77.01-1.54.02-2.32.03-1.62.01-3.25.02-4.89.02-7.17-33.55-18.99-74.87-38.34-115.73-4.47-9.43-14.41-24.94-17.79-42.34-1.68-8.61-1.75-17.69,1.24-26.72,5.75-17.34,18.88-23.72,23.91-46.31,3.66-16.4.48-29.88-2.45-41.72-16.14-65.19-24.27-92.89-29.39-117.08-13.33-1.85-34.67-10.73-68.79-35.1-85.91-61.37-127.64-73.64-184.1-73.64s-85.9-73.64-144.81-95.73c-58.91-22.09-103.09-31.91-122.73-27-4.98,1.25-9.33,1.23-13.37.29h-.01c-11.89-2.7-21.06-13.22-35.71-22.38-19.64-12.27-71.18-2.45-88.37-54-7.75-23.25-33.98-51.99-57.96-76.32l.79-32.36v-.09c25.42,17.86,53.78,47.03,71.9,81.77,29.46,56.46,34.37,54,73.64,54,11.55,0,18,.85,21.67,2.3h.01c8.79,3.48,1.56,10.41,10.23,17.34,12.27,9.82,29.45,4.91,34.36-4.91,4.91-9.82,14.73,31.91,100.64,27,85.91-4.91,31.91,0,76.09,29.45,44.18,29.46,17.18,68.73,90.82,66.28,73.63-2.46,95.72,63.81,181.63,76.09,19.54,2.79,34.11,7.23,44.99,12.43-1.73-15.84-1.27-27.97,2.91-40.61,11.51-34.77,42.09-52.04,62.56-94.55,24.03-49.91,25.78-98.43-1.03-161.29-19.89-21.91-54.35-55.98-94.7-79.26-63.82-36.81-179.18-34.36-216-105.54s-34.36-34.37-93.27-63.82c-58.91-29.45-81.53-60.52-81.53-60.52,0,0-26.47,1.61-26.47-10.66,0-4.28-1.49-7.36-4.37-9.88-5.38-4.7-15.61-7.41-30-12.21-22.09-7.37-34.36-14.73-41.72-61.37-3.65-23.1-13.92-37.16-27.24-48.76l7.41-9.93c20.04,15.48,38.3,34.79,41.92,53.78,9.82,51.55,31.91,56.46,54,61.37,2.21.49,4.11,1.08,5.75,1.75,14.56,5.89,9.36,17.58,32.63,17.87.29.01.59.01.89.01,27,0,24.55,29.46,95.73,58.91,71.18,29.46,81,29.46,83.45,56.46,2.46,27,49.09,68.73,162,83.45,30.04,3.92,54.51,13.4,74.26,25.2-14.25-26.19-12.19-30.55-16.38-45.44-6.77-24.07-18.21-77.46-3.88-139.3,5.09-21.95,6.79-16.36,31.91-85.91,13.62-37.72,22.21-61.5,26.49-76.09-3.06-8.5-6.92-18.4-11.76-29.46-17.18-39.27-22.09-19.63-51.55-24.54-29.45-4.91-66.27-34.37-81-54-14.72-19.64-27-4.91-54-14.73s-7.36-17.18-27-22.09c-1.07-.27-2.17-.53-3.28-.79-19.24-4.51-43.62-8.99-48.26-50.76-4.1-36.92-20.21-42.99-54.05-72.65l.12-.07,12.64-7.39.21-.13h.01c9.01,4.89,18.71,9.71,28.79,13.97,63.82,27,17.19,19.64,34.37,71.18,12.67,38,40,29.31,57.43,32.93h.01c6.22,1.3,11.16,4.15,13.74,11.25,9.82,27,27,12.28,44.18,12.28s12.27,56.45,95.73,63.82c20.73,1.82,35.39,6.53,45.74,12.57-2.14-21.67-6.29-54.42-13.83-105.85-1.03-7.06-1.91-12.95-2.66-17.89-4.39-29.17-4.18-25.16-4.71-31.2-4.45-50.87,2.37-89.05,12.18-123.25l33.77,1.48c-8.89,54.18-19.81,127.29-15.95,153.88.44,3.02,1.07,5.44,1.91,7.16,1.39,2.85,5.04,9.56,7.37,19.64,4.89,21.16-2.08,30.88-.16,49.89,1.54,15.3,7.72,16.98,14.88,38.47,24.55,73.64,12.28,76.1-44.18,206.19-5.72,13.17-9.65,25.85-12.07,38.15,17.94-28.5,55.86-73.3,117.62-74.97,90.82-2.46,58.91-78.55,125.18-90.82,66.27-12.27,100.64-63.82,100.64-63.82,0,0-2.46,9.82,22.09,2.46,24.54-7.37,24.54-14.73,24.54-14.73,0,0,.49-.99,1.5-2.68,4.47-7.53,19.07-29.03,45.14-39.05,31.91-12.27,39.27,22.09,56.45-41.73,2.99-11.09,7.83-21.74,13.65-31.57l15.4,8.89c-11.59,20.32-19.23,40.07-19.23,57.05,0,31.91-12.27,19.63-56.45,29.45-20.55,4.57-24.64,18.69-27.34,32.26-3.09,15.59-4.35,30.42-26.66,29.11-41.73-2.46-41.73,7.36-71.18,31.91-29.46,24.54-76.1,7.36-100.64,49.09-24.55,41.72-90.82,66.27-137.46,81-36.41,11.5-68.33,73.87-81.75,110.01,17.21,77.27,77.23,149.52,89.12,258.17.04.36.08.72.12,1.08,31.36-39.14,102.68-113.35,191.33-111.54,120.28,2.46,93.28-71.18,164.46-61.36s81-49.09,105.54-56.45c24.55-7.37,12.28,22.09,39.28,7.36,17.46-9.52,12.34-22.12,18.49-33.81h0c3.35-6.41,10.08-12.54,25.69-17.74,44.18-14.72,34.36-49.09,63.82-61.36,11.25-4.68,27.87-17.25,42.75-28.67l.35,1.44,3.55,14.88c-19.8,11.22-39.8,10.97-46.65,41.8-9.82,44.19-56.46,34.37-66.28,73.64-2.64,10.56-7.42,17.4-13.51,21.8-16.55,11.93-42.84,5.86-62.58,7.66-27,2.45-66.27,58.9-110.45,61.36-44.18,2.45-83.46,76.09-166.91,76.09s-144.82,56.45-184.09,105.55c-.24.3-.48.6-.71.9,4.05,48.51,2.68,72-3.96,90.08-13.08,35.63-32.9,38.88-49.33,80.83-15.72,40.11-15.37,78-13.57,100.22.02.22.03.43.05.64.13-.16.26-.31.4-.47,23.92-28.57,84.26-87.05,170.21-75.84,112.91,14.73,132.54-61.36,211.09-58.91,78.54,2.45,95.73-2.45,98.18,7.36,2.46,9.82,17.18,14.73,36.82,4.91,3.88-1.94,7.37-3.88,10.64-5.61h.01c13.25-7.03,22.68-10.63,38.44,3.16,19.64,17.18,49.09,9.82,90.82-4.91,15.03-5.3,34.18-9.33,51.29-11.63Z"/>
    <path class="cls-4" d="M963.23,565.71c12.83-33.6,48.62-98.12,93.73-70.56,6.74,4.02,14.01,8.98,20.36,13.51,29.01,19.65,62.91,57.7,82.35,62.17,2.47.67,5.96,1.14,7.6,2.91,2.07,2.4-.76,6.22-5.98,11.75-4.41,4.67-10.54,10.55-16.87,17.82-13.12,14.66-24.77,34.7-27.68,54.95-9.64,57.2,23.37,110.19-11.85,133.3-9.48,6.46-15.97,3.82-22.27-4.72-8.36-11.11-21.1-43.18-34.97-64.93-7.54-11.84-16.48-26.14-28.38-34.2-31.72-21.76-67.99,4.33-92.55-4.57-5.16-1.87-9.8-5.29-13.78-11.02-4.48-6.93-7.6-13.92-11.22-21.13-12.1-23.69-2.33-21.5,22.7-29.48,11.33-3.71,23.34-7.53,33.03-14.78,18.29-13.73,12.49-32.13,5.76-40.99v-.02Z"/>
    <path class="cls-4" d="M784.33,844.33c12.9-4.1,86.11-20.79,89.59,27.83,5.5,57.58,162.02,113.65,212.4,94.9,16.92-3.97,25.55-7.9,31.1-3.06,2.85,2.48,4.9,7.34,6.83,15.63,10.71,40.86-15.49,44.61,14.1,56.92,36.45,14.74,91.85,25.7,76.79,67.38-2.24,6.78-6.08,13.78-9.88,20.02-18.03,28.77-48.27,76.71-79.03,56.56-8.62-5.73-15.78-18.58-21.25-28.05-14.89-26.03-18.25-36.98-47.43-43.62-8.1-1.98-18.36-3.74-27-5.13-57.22-8.11-117.69-18.03-134.18-52.9-14.34-24.69,3.77-31.64-6.53-33.83-11.59-1.8-25.16-1.55-36.97-2.17-11.49-.33-20.73-.2-31.68.1-34.39.97-52.13,3.18-53.24-14.86-.29-3.34.4-8.43.99-12.39,1.43-9.64,2.54-16.23,4.29-25.02,2.03-10.05,3.38-14.19,3.65-15,1.07-3.63,1.75-6.36.43-12.47-3.58-14.37-15.88-24.29-29.63-26.72-7.92-1.52-6.4-5.52-3.47-11.39,9.5-17.92,38.13-50.96,40.12-52.73h.02Z"/>
    <path class="cls-1" d="M1306.28,1742.52h0c-.79.08-1.59.14-2.38.19-.65.05-1.3.09-1.95.13-1.87.14-3.74.26-5.63.37-.08.01-.16.02-.24.02-2.24.14-4.49.26-6.75.37h-.09c-1.88.09-3.78.18-5.68.25-.78.03-1.56.06-2.35.09-.76.02-1.52.05-2.29.08-1.22.03-2.45.07-3.68.09-.93.03-1.86.05-2.8.07h0c-22.42-28.15-31.94-82.74-36.4-108.31-4.12-23.64-7.69-56.93-4.78-97.53,22.73-22.55,11.31-64.55-.32-87.4-8.53-16.78-4.19-36.17-7.22-52.11-2.24-35.42-14.79-50.52-23.23-57.44-7.69-6.3-28.68-19.53-42.82-25.6-5.15-2.21-10.06-5.03-14.62-8.3-3.98-2.85-8.73-6.23-10.34-9.35-2.33-4.93,5.4-2.24,8.15-.78,27.21,14.4,49.39,20.16,59.19,15.58,9.77-4.57,4.75-20.36,10.26-46.42,7.98-37.79,27.05-44.9,49.34-92.27,6.32-13.44,14.51-33.53,20.61-59.91,5.15-39.97-.14-71.61-4.91-90.82-6.52-26.25-14-56.38-39.27-73.63-5.78-3.95-4.91-2.05-28.23-13.5-30.59-15.03-35.26-19.87-52.77-28.23-37.18-17.75-66.68-20.09-66.27-22.09.38-1.91,26.93,1.65,44.63,4.69,8.01,1.38,17.65,2.19,27.65,5.59,92.34,31.39,69.44,45.83,35.98-51.52-29.4-105.15,22.82-206.92,47.42-284.26,3.68-12.27,7.33-34.24,9.61-43.21.02,5.2-.06,13.43-.77,23.48-2.88,41.04-12.88,66.74-37.3,141.09-15.77,48.04-18.15,57.25-18.82,72-1.39,30.88,6.14,54.72,11.77,71.22,37.81,110.92,79.48,152.86,86.01,214.33,4.5,42.37-1.58,84.09-1.58,84.09,0,2.25-2.74,9.23-3.33,19-.96,15.97,2.9,27.8,3.68,30.68,9.32,34.3-68.81,83.64-70.33,151.19-.44,19.57,5.43,45.94,17.49,50.89.15.06.3.12.45.17.43.16.87.29,1.32.39,5.45,1.22,12.26-1.59,20.67-10.42,13.9-11.8,27.84-20.34,22.71-11.36-2.53,4.25-8.46,11.49-12.47,15.78-7.98,8.5-13.66,11.5-16.62,17.8-1.36,2.87-1.43,4.28-3.72,27.33-1.12,11.27-1.16,11.49-1.23,12.28-2.04,23.54,11.45,70.42,14.73,87.13,6.91,35.16-8.82,51.43-13.5,83.46-4.67,31.91,1.68,79.14,53.02,144.63Z"/>
    <path class="cls-4" d="M1335.46,930.72c-20.2-9.48-73.08-43.57-31.54-94.23,4.01-6.03,7.08-14.05,7.4-20.17.97-37.73-48.72-52.74-3.64-70.36,12.05-4.51,24.1-7.21,36.61-10.01,51.95-11.13,57.84-.94,92.6-21.63,6.11-3.62,14.67-9.28,21.42-14.04,44.41-32.89,116.49-80.56,140.02-76.09,6.34.78,10.2,4.41,10.78,11.64.5,4.1-.8,11.09-2.77,17.33-24.52,67.28,24.25,62.94,44.89,113.47,1.81,4.69,3.56,9.01,5.96,13.85,2.55,5.21,5.04,9.43,7.17,12.87,3.88,6.25,6.59,9.91,6.38,12.15-.25,2.74-4.9,3.34-17.09,3.96-10.6.52-18.12.8-30.15,1.55-75.68,3.37,11.92,50.25-62.99,36.17-21.36-4.18-49.54-11.15-66.8-14.8-16.44-3.83-43.03-8.65-50.37-6.13-12.73,1.7-14.52,18.91-15.62,31.71-1.23,14.96.5,23.72-3.73,30.21-2.1,3.72-8.4,7.43-15.24,9.83-6.41,2.42-13,3.87-18.56,7.95-6.97,5.14-1.53,9.47-7.44,15.77-12.89,13.83-41.08,11.07-47.29,9h-.02Z"/>
    <path class="cls-4" d="M1389.49,1130.3s35.59-90.82,120.27-51.55,88.36-42.95,149.73-35.59,62.59,39.27,1.23,84.68c-61.36,45.41-14.73,58.91-96.95,45.41s-47.86,52.77-105.55,54c-57.68,1.23-90.82,19.64-79.77-18.41s29.45-19.64,14.73-41.73-3.68-36.82-3.68-36.82Z"/>
    <g>
      <path class="cls-9" d="M1004.9,590.29c-4.64-36.3-.02-85.25,57.53-48.98,34.1,22.85,22.43,39.4,60.24,44.11,18.37,5.95-45.73,29.92-38.87,80.71,3.91,47.09-10.83-11.81-65.8-17.72-7.07-.8-15.88-1.83-22.77-3.37-21.05-4.51-30.52-13.39-5.63-28.07,11.1-5.72,19.45-15.17,15.31-26.66v-.03Z"/>
      <path class="cls-9" d="M857.7,895.86c-10.25-26.31-39.24-53.67-52.75-26.55-7.93,17.61,22.35,29.45,14.58,56.47-4,18.93-25.56,42.21-18.38,50.06,12.82,17.83,137.36,5.94,130.22,43.3-1.79,15-19.2,29.33-12.12,34.6,4.68,3.43,13.89,3.73,19.86,4.04,11.26.33,22.12-.11,32.73,1.84,18.16,3.24,14.4,10.35,29.78,12.46,9.29,1.11,18.68.65,27.97-.36,21.18-2.42,21.08-7.64,38.42,3.94,15.3,10.46,30.15,20.19,35.21,39.12,2.35,8.47,1.62,14.3,3.87,13.88,1.04-.19,2.75-1.75,5.68-4.99,4.33-4.8,8.2-9.56,12.48-14.21,16.97-19.78,36.32-25.03,12.56-41.94-12.75-9.55-26.81-19.05-41.22-26.69-4.38-2.35-11.35-5.57-15.25-7.43-5.66-2.55-7.72-5.03-6.84-11.16.81-9.28,3.19-15.15,11.49-20.33,1.61-1.25.94-1.6-5.54-2.43-14.84-1.75-30.22-3.71-45.19-5.91-21.81-3.46-45.96-4.67-64.02-6.65-8.9-1.38-12.57-4.15-20.84-13.32-2.92-3.19-5.84-6.82-8.16-10.77-5.35-8.95-3.35-12.64-10.02-13.51-4.65-.5-11.33-.01-16.43.32-5.63.41-10.55.49-16.19-.12-25.85-2.68-40.84-18.08-34.13-28.72,8.2-9.93,2.54-17.54-5.74-22.8-.84-.51-1.46-1.11-1.96-2.03l-.07-.13Z"/>
      <path class="cls-9" d="M1288.89,462.66c3.41-2.06,28.9-7.5,43.02,6.21,4.3,4.05,8.38,9.49,13.91,11.56,3.11,1.33,6.27,1.86,9.48,2.03,16.97.06,24.22-2.78,39.67,9.15,11.2,6.92,32.11,10,48.1,12.5,4.88,1.09,29.43,3.18,18.65,8.8-43.61,14.25-41.59,59.7-84.32,79.49-11.37,6.26-24.19,13.87-35.32,19.12-16.28,7.73-27.18,8.48-19.43-12.35,17.41-45.48,54.01-58.77,8.7-85.67-2.07-1.32-4.36-2.7-6.6-3.99-13.22-7.64-20.42-9.5-21.22-16.9.58-13.01-6.22-21.77-14.64-29.93v-.02Z"/>
      <path class="cls-9" d="M1430.4,749.03s134.18-117.82,119.45-58.91,49.09,52.36,21.27,80.18-19.64-4.91-54,11.45-73.64,45.82-85.09,19.64-1.64-52.36-1.64-52.36Z"/>
      <path class="cls-9" d="M1335.49,767.03s70.36-8.18,58.91,37.64-22.91,36-22.91,57.27,0,57.27-27.82,29.45-27.82-36-9.82-54,32.73-11.45,9.82-31.09-34.36-19.64-24.55-29.45,16.36-9.82,16.36-9.82Z"/>
      <path class="cls-9" d="M1421.4,1145.03s9.82-55.23,72.41-40.5,104.32,11.05,131.32-1.23c27-12.27,13.5,34.36-44.18,38.05-57.68,3.68-78.55,60.14-109.23,39.27s-50.32-35.59-50.32-35.59Z"/>
      <path class="cls-9" d="M1338.76,1441.21s-3.27-47.45,45.82-47.45,3.27-14.73,75.27-18,101.45-45.82,94.91-18,18,42.55-21.27,39.27c-39.27-3.27-76.91-14.73-83.45,3.27s-1.64,29.45-26.18,27.82-27.82-3.27-36,24.55c-8.18,27.82-11.45,40.91-31.09,29.45-19.64-11.45-18-40.91-18-40.91Z"/>
      <path class="cls-9" d="M828.22,1243.21s27.82,58.91,109.64,68.73c81.82,9.82,94.91,21.27,157.09,49.09,62.18,27.82,22.91,22.91,32.73,67.09,9.82,44.18-45.82,21.27-78.55-21.27-32.73-42.55-8.18-31.09-85.09-52.36s-80.18,1.64-109.64-42.55c-29.45-44.18-44.18-42.55-44.18-55.64s18-13.09,18-13.09Z"/>
    </g>
    <path class="cls-13" d="M1180.1,261.28s-145.5-29.1-268.36,97c-122.86,126.1-64.67,97-139.03,132.56-74.36,35.57-100.23,12.93-116.4,97-16.17,84.06-35.57,103.46-84.06,171.36-48.5,67.9-80.83,194-35.57,281.29,30.43,58.7,23.78,180.01,90.53,239.26,10.61,9.42,34.06,27.68,51.73,61.43,22.87,43.67,6.95,57.69,25.87,87.3,24.59,38.49,58.69,24.46,126.43,76.83,17.74,13.71,34.17,28.8,54.63,49.27,54.97,54.97,74.36,87.3,151.96,100.23s87.3,25.87,164.9,45.27,64.67,29.1,161.66-3.23c97-32.33,67.9-67.9,187.53-103.46,119.63-35.57,122.86-45.27,164.9-113.16,14.6-23.58,19.06-29.61,22.45-32.86,2.47-2.37,4.54-3.88,4.95-4.2,27.46-21.54,53.43-92.27,53.43-92.27,26.04-70.91,85.35-57.63,133.8-148.53,2.97-5.57,15.82-30.16,24.63-64.86,27.66-108.97-28.32-145.28-16.17-265.13,5.86-57.76,21.07-71.08,16.17-126.1-2.85-32.01-6.33-71.04-32.33-106.7-32.55-44.63-69.44-39.33-128.49-99.35-13.16-13.37-26.18-29.18-39.64-49.38-51.73-77.6,9.7-77.6-90.53-100.23-100.23-22.63-103.46,16.17-171.36-42.03-67.9-58.2-61.43-61.43-132.56-64.67-73.25-3.33-96.57-43.71-129.06-28.56-3.05,1.42-22.05,10.66-22.91,25.33-.53,9.18,6.2,17.85,12.93,22.63,14.62,10.4,27.62,1.38,71.13,0,37.79-1.2,47.79,5.61,51.78,7.39,6.47,2.89,12.17,8.06,22.58,18.48,25.87,25.87,45.27,22.63,77.6,32.33,32.33,9.7-38.8,35.57,84.06,48.5,122.86,12.93,164.9,12.93,177.83,61.43,12.93,48.5,9.7,48.5,74.37,100.23,64.66,51.73,61.43,25.87,74.36,74.36,3.11,11.65,10.12,18.74,14,24.54,10.65,15.94,16.01,18.97,21.57,27.19,9.91,14.66,9.54,29.73,9.7,51.73.75,101.34,11.23,117.74-3.23,148.73-2.26,4.84-5.47,13.24-8.43,25.21-2.1,8.48-1.37,21.37,8.43,52.39,19.4,61.43,58.2,80.83,12.93,132.56-45.27,51.73-42.03,103.46-97,158.43-54.97,54.97-77.6,19.4-84.06,80.83-6.47,61.43-6.47,80.83-58.2,109.93-51.73,29.1-45.27,9.7-58.2,42.03-12.93,32.33-32.33,25.87-97,54.97-64.67,29.1-64.67,0-122.86,58.2-58.2,58.2-74.36,119.63-155.2,61.43s-29.1-54.97-132.56-67.9c-66.23-8.28-79.46,28.49-94.83,27.19-15.05-1.27-17.48-22.38-37.73-53.05-7.08-10.73-25.2-28.71-61.43-64.67-32.88-32.62-49.31-48.94-54.97-51.73-41.1-20.32-70.39-1.35-94.16-26.93-7.55-8.13-15.77-20.92-19.01-34.5-16.17-67.9,9.7-35.57-35.57-90.53-45.27-54.97-61.43-32.33-71.13-116.4-9.7-84.06,3.23,3.23-32.33-126.1-35.57-129.33-80.83-64.66-38.8-174.6,42.03-109.93,25.87-135.8,103.46-203.69,77.6-67.9-12.93-113.16,54.97-135.8,67.9-22.63,151.96-29.1,206.93-122.86,54.97-93.76,54.97-106.7,126.1-113.16,71.13-6.47,109.93,6.47,119.63-12.93s3.23-45.27,3.23-45.27Z"/>
    <g>
      <path class="cls-8" d="M469.03,365.71c-17.56-.49-29.76,116.26-47.6,184.72-7.43,28.55-15.84,48.7-26.03,48.47-19.34-.45-35.32-74.08-36.82-81-8.31-38.3-2.75-53.07-12.27-100.64-6.23-31.1-13.52-67.51-27-68.73-14.94-1.34-31.92,41.01-39.28,68.73-11.87,44.73-.91,59.67-12.27,105.54-1.64,6.63-17.06,68.89-34.36,68.73-31.62-.29-37.67-208.68-58.91-208.63-18.15.03-66.2,152.22,3.44,275.91,27.42,48.7,65.39,79.32,93.31,97.37,0,0,4.06,54.78-2.03,111.58-6.08,56.8-28.4,142-12.17,208.94,16.23,66.95,10.15,135.92-10.14,241.41-20.29,105.49-8.12,146.06,62.89,139.98,71-6.09,60.86-46.66,52.74-95.35-8.11-48.69,14.2-111.57,4.06-164.32-10.14-52.74-22.32-119.69-2.03-237.35,20.29-117.66-2.03-204.89-2.03-204.89,31.82-21.99,76.12-59.92,105.49-119.69,61.43-125.02,20.49-270.23,1.01-270.78Z"/>
      <path class="cls-15" d="M167.13,418.9s-4.48,7.27-9.03,19.04c-6.46,16.7-13.09,42.45-7.33,69.32,9.82,45.82,9.82,55.64,9.82,83.45s-4.91,42.55,27.82,68.73,14.73,39.27,54,57.27,45.82,45.82,44.18,72,3.27,68.73-9.82,108-14.73,26.18-13.09,76.91,0,62.18,4.91,80.18,27.82,62.18,13.09,112.91-6.55,99.82-18,130.91c-11.45,31.09-14.73,60.55-14.73,86.73s-4.91,42.55,21.27,52.36c26.18,9.82,8.18-1.64-1.64-31.09s-14.73-39.27,3.27-81.82c18-42.55,21.27-67.09,18-98.18s3.27-27.82,11.45-68.73c8.18-40.91,0-65.45-11.45-94.91-11.45-29.45-34.36-11.45-14.73-65.45s-6.55-34.36,13.09-90,19.64-80.18,6.55-129.27-1.64-54-36-76.91-60.55-44.18-70.36-65.45-16.36-19.64-16.36-44.18-18-81.82-16.36-109.64,11.45-62.18,11.45-62.18Z"/>
      <path class="cls-14" d="M176.95,417.26s16.36,72,13.09,93.27-11.45,44.18,13.09,70.36,55.64,31.09,55.64,42.55,16.36,26.18,14.73,34.36-9.82-4.91-24.55-21.27,1.64-9.82-21.27-21.27-34.36-8.18-44.18-37.64-4.91-47.45-4.91-67.09,3.27-34.36-1.64-49.09-4.91-14.73-4.91-26.18,4.91-18,4.91-18Z"/>
      <path class="cls-15" d="M316.04,698.72c-4.91-9.82-18-6.55-18-57.27s14.73-29.45,0-57.27-19.64-14.73-8.18-52.36,14.73-24.55,9.82-54-18-18-3.27-55.64,26.18-57.27,24.55-32.73-13.09,36-1.64,55.64,21.27,24.55,13.09,44.18-22.91,24.55-11.45,50.73,27.82,40.91,18,63.82-14.73-8.18-11.45,32.73,13.09,54,8.18,58.91-19.64,3.27-19.64,3.27Z"/>
      <path class="cls-14" d="M412.58,603.8c-29.46,4.91-4.91,9.82-26.18,19.64-21.28,9.82-18-6.54-16.37-26.18,1.64-19.64,1.64-11.46-14.72-24.55-16.37-13.09,3.27-54.81,3.27-54.81,1.5,6.92,17.48,80.55,36.82,81,10.19.23,18.6-19.92,26.03-48.47l5.88,7.56s14.72,40.91-14.73,45.81Z"/>
      <path class="cls-15" d="M466.99,436.49c-1.23-12.27-17.18-34.36-18.41-7.36s7.36,41.73-2.45,57.68-13.5,9.82-13.5,38.05,7.36,56.45-2.45,71.18-25.77,27-24.55,41.73-12.27,22.09-35.59,28.23-11.05,12.27,14.73,6.14,40.5,2.45,41.73-24.55-1.23-19.64,14.73-42.95,23.32-15.95,17.18-51.55-22.09-23.32-7.36-44.18,24.55-19.64,19.64-41.73-3.68-30.68-3.68-30.68Z"/>
      <path class="cls-14" d="M316.04,703.63s-18-16.36-6.55,31.09,22.91,36,1.64,109.64-29.45,81.82-22.91,139.09,9.82,44.18,9.82,116.18-16.36,86.73-1.64,132.55c14.73,45.82,6.55,68.73-6.55,111.27s8.18,111.27,21.27,70.36c13.09-40.91-19.64-42.55,4.91-108s-16.36-111.27-4.91-162,8.18-106.36,3.27-155.45-18-42.55-1.64-83.45,16.36-58.91,22.91-99.82-19.64-72-9.82-86.73-9.82-14.73-9.82-14.73Z"/>
      <path class="cls-14" d="M245.06,734.91c-4.36-2.82-8.96-5.94-13.73-9.39,4.68,4.26,9.33,8.23,13.9,11.9-.1-1.63-.17-2.51-.17-2.51Z"/>
      <path class="cls-14" d="M207.22,570.26c.27,0,2.27-.05,4.35-1.24,1.43-.81,2.84-2,4.23-3.5-17.42-55.94-24.75-182.66-41.31-182.62-3.29,0-7.55,5.02-11.92,13.93,4.89,12.27,11.76,31.13,17.65,54.8,12.05,48.42,20.46,118.76,27,118.63Z"/>
      <path class="cls-14" d="M469.03,365.71c-2.79-.08-5.45,2.82-8.01,8,4.31,6.8,10.83,18.36,15.38,33.73,10.27,34.68-.79,50.47,0,108,.46,33.08,4.25,37.2,0,55.64-5.41,23.48-17.8,43.94-22.91,52.36-7.65,12.62-10.81,14.95-22.91,34.36-9.74,15.63-14.81,25.52-18,31.09-8.87,15.48-25.37,36.1-58.91,57.27,1.07,17.86,2.15,43.87,1.64,75.27-.29,18.08-1.02,58.96-8.18,112.91-13.55,102.03-20.64,116.1-18.35,161.74,2.05,40.86,2.15,31.71,11.64,81.06,10.14,52.75-12.17,115.63-4.06,164.32,8.12,48.69,18.26,89.26-52.74,95.35-15.07,1.29-27.48.47-37.5-2.62,10.18,19.38,30.51,26.73,63.68,23.89,71-6.09,60.86-46.66,52.74-95.35-8.11-48.69,14.2-111.57,4.06-164.32-10.14-52.74-22.32-119.69-2.03-237.35,20.29-117.66-2.03-204.89-2.03-204.89,31.82-21.99,76.12-59.92,105.49-119.69,61.43-125.02,20.49-270.23,1.01-270.78Z"/>
      <path class="cls-14" d="M334.04,397.63c4.83,18.9.07,23.17,4.91,67.09,2.13,19.33,3.39,21.58,3.27,32.73-.13,11.82-1.63,17.63,1.64,26.18,3.52,9.22,7.42,8.13,13.09,18,9.97,17.35,5.77,34.39,12.28,36,1.22.3,3.26.17,6.46-2.66-9.55-22.3-16.16-52.73-17.09-57.06-8.31-38.3-2.75-53.07-12.27-100.64-6.23-31.1-13.52-67.51-27-68.73-3.04-.27-6.16,1.26-9.26,4.1,14.86,17.62,21.07,33.58,23.98,44.99Z"/>
    </g>
    <g>
      <path class="cls-8" d="M2128.99,738.99s-22.31,87.23-2.03,204.89c20.29,117.66,8.11,184.6-2.03,237.35-10.14,52.74,12.17,115.63,4.06,164.32-8.11,48.69-18.26,89.26,52.74,95.35,71,6.09,83.17-34.49,62.89-139.98-20.29-105.49-26.37-174.46-10.14-241.41,16.23-66.94-6.09-152.15-12.17-208.95-6.09-56.8-2.03-111.57-2.03-111.57,23.79-12.43,71.68-42.11,93.32-97.37,44.83-114.47-48.38-273.86-137.95-275.89-85.03-1.93-185.18,137.54-152.15,253.58,20.79,73.02,86.69,109.96,105.49,119.69Z"/>
      <path class="cls-14" d="M2292.76,557.97c3.09,34.19-11.18,60.66-21.27,79.36-9.51,17.64-22.22,41.2-49.09,54-16.98,8.09-34.07,9.25-42.55,9.82-18.95,1.28-34.4-1.59-40.91-3.27-45.04-11.65-86.81-76.49-81.82-139.91,3.07-39.03,22.93-65.66,34.36-81,15.27-20.47,44.09-59.13,81.82-57.27,24.18,1.19,40.18,18.44,67.09,47.45,26.02,28.05,48.92,52.74,52.36,90.82Z"/>
      <path class="cls-12" d="M2270.33,558.47c2.5,27.68-9.05,49.1-17.22,64.25-7.7,14.28-17.98,33.35-39.74,43.71-13.75,6.55-27.58,7.48-34.44,7.95-15.34,1.04-27.85-1.29-33.12-2.65-36.46-9.43-70.28-61.92-66.23-113.26,2.49-31.6,18.56-53.15,27.82-65.57,12.36-16.57,35.69-47.87,66.23-46.36,19.57.96,32.52,14.93,54.31,38.42,21.06,22.71,39.6,42.7,42.39,73.52Z"/>
      <path class="cls-15" d="M2130.76,400.06s-34.36,1.23-42.95,29.45-15.95,35.59-31.91,50.32-14.73,12.27-22.09,31.91-1.23,63.82-2.45,83.45-1.23,29.45,11.05,46.64,6.14,30.68,24.55,40.5,35.59,36.82,63.82,41.73,8.59,1.23-13.5-22.09-39.27-14.73-54-42.95-17.18-49.09-19.64-57.68-14.73-63.82,7.36-92.05,35.59-29.45,41.73-49.09-8.59-20.86,18.41-39.27,30.68-13.5,51.55-20.86,13.5-18.41,2.45-15.95-34.36,15.95-34.36,15.95Z"/>
      <path class="cls-15" d="M2209.31,395.16s24.55,4.91,39.27,36.82,47.86,46.64,52.77,73.64,14.73,19.64,13.5,52.77,3.68,47.86-7.36,68.73-30.68,49.09-45.41,66.27-2.45,24.55-33.14,24.55-84.68,27-82.23,71.18c0,0-23.32,58.91,0,131.32,23.32,72.41,46.64,166.91,18.41,216s-29.45,81-15.95,138.68c13.5,57.68,15.95,81,12.27,105.55s-11.05,50.32-15.95,28.23c-4.91-22.09,13.5-44.18,3.68-74.86-9.82-30.68-15.95-40.5-17.18-62.59s-11.05-50.32-3.68-79.77,19.64-38.05,25.77-73.64c6.14-35.59,12.27-44.18,7.36-66.27-4.91-22.09-9.82-29.45-11.05-56.45s9.82-18.41-6.14-49.09c-15.95-30.68-20.86-19.64-18.41-50.32s-2.45-63.82,1.23-89.59,1.23-50.32,19.64-72.41,54-20.86,71.18-24.55,29.45-8.59,34.36-17.18,13.5-18.41,22.09-29.45,19.64-33.14,24.55-45.41,1.23-9.82,4.91-33.14,7.36,2.45,3.68-31.91-20.86-28.23-23.32-49.09-13.5-35.59-28.23-46.64-20.86-27-29.45-38.05-7.36-9.82-20.86-13.5,3.68-9.82,3.68-9.82Z"/>
      <path class="cls-14" d="M2168.4,769.88s-11.45,26.18-13.09,67.09,11.45,73.64,18,109.64,26.18,40.91,19.64,9.82-19.64-52.36-19.64-88.36-1.64-36,1.64-58.91,9.82-34.36,11.45-49.09-18,9.82-18,9.82Z"/>
      <path class="cls-14" d="M2189.67,1067.7s-13.09,91.64,1.64,144,9.82,52.36,13.09,109.64c3.27,57.27,31.09,50.73,6.55,68.73s-39.27-3.27-32.73-13.09c6.55-9.82,13.09-8.18,18-4.91s-16.36-16.36-11.45-63.82c4.91-47.45,6.55-62.18-4.91-96.55s-16.36-29.45-11.45-55.64c4.91-26.18,4.91-63.82,9.82-75.27s11.45-13.09,11.45-13.09Z"/>
      <path class="cls-14" d="M2275.78,430.71c44.12,99.54,40.98,202.02-13.7,262.68-11.71,12.99-29.83,28.55-57.68,40.5-4.22,19.47-6.69,35.77-8.18,47.45-4.88,38.14-2.5,51.34-1.64,55.64,3.78,18.72,11.9,31.17,14.73,36,23.3,39.74,9.15,109.69,3.27,152.18-15.03,108.79-.07,213.23,4.91,243.82,10.16,62.39,26.77,112.31,1.88,132.71-17.49,14.34-53.33,12.34-54.82,12.21-18.48-1.58-31.46-5.51-40.41-11.3,3.39,20.55,17.66,34.88,57.59,38.3,71,6.09,83.17-34.49,62.89-139.98-20.29-105.49-26.37-174.46-10.14-241.41,16.23-66.94-6.09-152.15-12.17-208.95-6.09-56.8-2.03-111.57-2.03-111.57,23.79-12.43,71.68-42.11,93.32-97.37,26.9-68.7,4.09-153.57-37.82-210.91Z"/>
    </g>
  </g>
</svg>